<?xml version="1.0" encoding="UTF-8" standalone="no"?>
<!-- Created with Inkscape (http://www.inkscape.org/) -->

<svg
   width="286.01459mm"
   height="286.01459mm"
   viewBox="0 0 286.01459 286.01459"
   version="1.1"
   id="svg1"
   xml:space="preserve"
   inkscape:version="1.3.2 (091e20e, 2023-11-25, custom)"
   sodipodi:docname="FAフレーム＠フキダシアリス.svg"
   xmlns:inkscape="http://www.inkscape.org/namespaces/inkscape"
   xmlns:sodipodi="http://sodipodi.sourceforge.net/DTD/sodipodi-0.dtd"
   xmlns="http://www.w3.org/2000/svg"
   xmlns:svg="http://www.w3.org/2000/svg"><sodipodi:namedview
     id="namedview1"
     pagecolor="#ffffff"
     bordercolor="#000000"
     borderopacity="0.25"
     inkscape:showpageshadow="2"
     inkscape:pageopacity="0.0"
     inkscape:pagecheckerboard="0"
     inkscape:deskcolor="#d1d1d1"
     inkscape:document-units="mm"
     inkscape:zoom="0.4894542"
     inkscape:cx="540.39786"
     inkscape:cy="540.39786"
     inkscape:window-width="1920"
     inkscape:window-height="991"
     inkscape:window-x="-9"
     inkscape:window-y="-9"
     inkscape:window-maximized="1"
     inkscape:current-layer="layer1" /><defs
     id="defs1" /><g
     inkscape:label="Layer 1"
     inkscape:groupmode="layer"
     id="layer1"
     transform="translate(38.082584,-5.4927063)"><path
       style="fill:#000000"
       d="M 48.171584,290.93984 C 33.049615,289.55051 17.603344,284.07352 4.7799162,275.55389 -19.461147,259.44861 -34.973174,233.48906 -37.544232,204.72396 c -0.175368,-1.96203 -0.271276,-22.02516 -0.270032,-56.48854 0.0021,-57.161693 -0.01754,-56.206876 1.311617,-63.896879 5.117327,-29.606994 24.194596,-55.171107 51.335424,-68.791012 8.20969,-4.119816 17.809677,-7.215378 26.988806,-8.7026722 7.646046,-1.2388885 6.657518,-1.2198588 63.367707,-1.2198588 50.01238,0 53.98031,0.032667 57.63027,0.4744589 12.4237,1.5037648 22.37481,4.4763961 32.99816,9.8573291 26.55746,13.451873 45.62486,39.249005 50.64071,68.514046 1.33806,7.806937 1.28817,5.666569 1.40302,60.192708 0.10884,51.67649 0.0301,57.49972 -0.86641,64.10327 -2.87016,21.14039 -12.17116,39.82223 -27.36217,54.95923 -15.6419,15.58629 -36.43517,25.27213 -58.4842,27.2429 -3.76833,0.33682 -109.290144,0.30964 -112.977086,-0.0291 z"
       id="path1" /></g></svg>
